<svg width="66" height="61" viewBox="0 0 66 61" fill="none" xmlns="http://www.w3.org/2000/svg">
<path d="M32.9574 52.9616C46.389 52.9616 57.2774 42.99 57.2774 30.6894C57.2774 18.3889 46.389 8.41733 32.9574 8.41733C19.5258 8.41733 8.63732 18.3889 8.63732 30.6894C8.63732 42.99 19.5258 52.9616 32.9574 52.9616Z" stroke="white" stroke-width="2" stroke-linecap="round" stroke-linejoin="round"/>
<path d="M32.9572 38.1135C38.5537 38.1135 43.0906 33.9587 43.0906 28.8335C43.0906 23.7082 38.5537 19.5534 32.9572 19.5534C27.3607 19.5534 22.8239 23.7082 22.8239 28.8335C22.8239 33.9587 27.3607 38.1135 32.9572 38.1135Z" stroke="white" stroke-width="2" stroke-linecap="round" stroke-linejoin="round"/>
<path d="M16.6934 47.2543C18.2182 44.5038 20.545 42.1936 23.4157 40.5799C26.2864 38.9662 29.589 38.1121 32.9574 38.1121C36.3258 38.1121 39.6284 38.9662 42.4991 40.5799C45.3698 42.1936 47.6966 44.5038 49.2214 47.2543" stroke="white" stroke-width="2" stroke-linecap="round" stroke-linejoin="round"/>
</svg>
