<svg width="300" height="294" viewBox="0 0 300 294" fill="none" xmlns="http://www.w3.org/2000/svg">
<path d="M300 146.81C300 227.89 232.843 293.619 150 293.619C67.1573 293.619 0 227.89 0 146.81C0 65.7291 67.1573 0.000488281 150 0.000488281C232.843 0.000488281 300 65.7291 300 146.81Z" fill="black"/>
<ellipse cx="149.508" cy="145.831" rx="135.738" ry="131.149" fill="white"/>
<path d="M223.533 110.965C222.694 110.493 221.673 110.179 220.581 110.057C219.488 109.935 218.365 110.01 217.332 110.272L80.1377 145.231C78.1933 145.724 76.5472 146.614 75.4471 147.768C74.3471 148.922 73.8526 150.278 74.0382 151.631C74.2237 152.984 75.0793 154.261 76.4761 155.27C77.8728 156.279 79.7352 156.965 81.7827 157.225L117.33 161.77V187.578C117.323 188.984 117.965 190.358 119.172 191.524C120.379 192.69 122.096 193.592 124.1 194.115C126.101 194.647 128.302 194.775 130.416 194.481C132.53 194.188 134.46 193.488 135.954 192.471L153.095 180.896L180.289 196.394C182.251 197.527 184.781 198.154 187.404 198.157C188.553 198.156 189.695 198.039 190.788 197.809C192.575 197.44 194.182 196.772 195.45 195.873C196.717 194.973 197.6 193.873 198.012 192.682L225.49 114.848C225.736 114.146 225.683 113.414 225.339 112.73C224.994 112.045 224.37 111.435 223.533 110.965ZM182.144 126.833L121.494 155.114L87.9161 150.825L182.144 126.833ZM128.162 187.578V166.649L144.944 176.232L128.162 187.578ZM187.417 191.104L131.445 159.147L212.005 121.552L187.417 191.104Z" fill="black"/>
</svg>
