<svg width="305" height="294" viewBox="0 0 305 294" fill="none" xmlns="http://www.w3.org/2000/svg">
<path d="M305 146.809C305 227.889 236.723 293.618 152.5 293.618C68.2766 293.618 0 227.889 0 146.809C0 65.7286 68.2766 0 152.5 0C236.723 0 305 65.7286 305 146.809Z" fill="black"/>
<ellipse cx="152" cy="145.83" rx="138" ry="131.149" fill="white"/>
<path d="M184.336 106.375C171.188 106.375 159.676 110.641 152.5 117.853C145.324 110.641 133.812 106.375 120.664 106.375C110.198 106.383 100.164 109.525 92.7629 115.109C85.3622 120.694 81.1993 128.266 81.1875 136.164C81.1875 169.796 147.273 197.02 150.087 198.144C150.829 198.445 151.658 198.603 152.5 198.603C153.342 198.603 154.171 198.445 154.913 198.144C157.727 197.02 223.812 169.796 223.812 136.164C223.801 128.266 219.638 120.694 212.237 115.109C204.836 109.525 194.802 106.383 184.336 106.375ZM152.5 190.36C140.874 185.248 91.375 161.96 91.375 136.164C91.3851 130.304 94.4742 124.687 99.9647 120.544C105.455 116.401 112.899 114.07 120.664 114.062C133.048 114.062 143.446 119.04 147.788 127.035C148.172 127.74 148.825 128.343 149.664 128.767C150.503 129.191 151.49 129.418 152.5 129.418C153.51 129.418 154.497 129.191 155.336 128.767C156.175 128.343 156.828 127.74 157.212 127.035C161.554 119.025 171.952 114.062 184.336 114.062C192.101 114.07 199.545 116.401 205.035 120.544C210.526 124.687 213.615 130.304 213.625 136.164C213.625 161.922 164.114 185.243 152.5 190.36Z" fill="black"/>
</svg>
