<svg width="305" height="293" viewBox="0 0 305 293" fill="none" xmlns="http://www.w3.org/2000/svg">
<path d="M305 146.272C305 227.056 236.723 292.545 152.5 292.545C68.2766 292.545 0 227.056 0 146.272C0 65.4884 68.2766 0 152.5 0C236.723 0 305 65.4884 305 146.272Z" fill="black"/>
<ellipse cx="153" cy="146.67" rx="138" ry="130.67" fill="white"/>
<path d="M222.73 140.176C222.526 139.701 217.58 128.397 206.586 117.07C191.936 101.977 173.433 94 153.067 94C132.701 94 114.197 101.977 99.5474 117.07C88.5527 128.397 83.5838 139.719 83.4028 140.176C83.1372 140.791 83 141.457 83 142.131C83 142.805 83.1372 143.471 83.4028 144.086C83.6072 144.561 88.5527 155.859 99.5474 167.186C114.197 182.273 132.701 190.25 153.067 190.25C173.433 190.25 191.936 182.273 206.586 167.186C217.58 155.859 222.526 144.561 222.73 144.086C222.996 143.471 223.133 142.805 223.133 142.131C223.133 141.457 222.996 140.791 222.73 140.176ZM153.067 180.625C135.095 180.625 119.394 173.894 106.396 160.623C101.063 155.159 96.5262 148.928 92.9261 142.125C96.5253 135.321 101.063 129.09 106.396 123.627C119.394 110.356 135.095 103.625 153.067 103.625C171.039 103.625 186.739 110.356 199.737 123.627C205.08 129.089 209.627 135.32 213.236 142.125C209.026 150.222 190.687 180.625 153.067 180.625ZM153.067 113.25C147.523 113.25 142.105 114.943 137.496 118.116C132.887 121.289 129.295 125.799 127.173 131.075C125.052 136.351 124.497 142.157 125.578 147.758C126.66 153.359 129.329 158.504 133.249 162.543C137.168 166.581 142.162 169.331 147.599 170.445C153.036 171.559 158.671 170.988 163.792 168.802C168.913 166.617 173.29 162.916 176.37 158.167C179.45 153.419 181.093 147.836 181.093 142.125C181.086 134.469 178.13 127.129 172.876 121.716C167.622 116.303 160.497 113.258 153.067 113.25ZM153.067 161.375C149.371 161.375 145.759 160.246 142.686 158.131C139.613 156.016 137.219 153.009 135.804 149.492C134.39 145.974 134.02 142.104 134.741 138.37C135.462 134.635 137.242 131.205 139.855 128.513C142.468 125.821 145.797 123.988 149.421 123.245C153.046 122.502 156.803 122.883 160.217 124.34C163.631 125.797 166.549 128.265 168.602 131.43C170.655 134.596 171.751 138.318 171.751 142.125C171.751 147.23 169.783 152.127 166.278 155.737C162.774 159.347 158.022 161.375 153.067 161.375Z" fill="black"/>
</svg>
