<svg width="305" height="300" viewBox="0 0 305 300" fill="none" xmlns="http://www.w3.org/2000/svg">
<path d="M305 150C305 232.843 236.723 300 152.5 300C68.2766 300 0 232.843 0 150C0 67.1573 68.2766 0 152.5 0C236.723 0 305 67.1573 305 150Z" fill="black"/>
<ellipse cx="152" cy="149" rx="138" ry="134" fill="white"/>
<path d="M155.45 92C142.396 92 129.636 95.381 118.782 101.715C107.929 108.05 99.4693 117.053 94.4739 127.587C89.4785 138.12 88.1715 149.711 90.7182 160.894C93.2648 172.076 99.5507 182.348 108.781 190.41C118.011 198.472 129.771 203.963 142.574 206.187C155.377 208.411 168.647 207.27 180.707 202.906C192.767 198.543 203.075 191.154 210.327 181.674C217.579 172.194 221.45 161.049 221.45 149.647C221.431 134.363 214.472 119.71 202.099 108.902C189.725 98.0949 172.949 92.0161 155.45 92ZM155.45 198.426C144.405 198.426 133.607 195.565 124.424 190.205C115.24 184.845 108.082 177.227 103.855 168.314C99.628 159.401 98.5221 149.593 100.677 140.131C102.832 130.669 108.151 121.977 115.961 115.156C123.771 108.334 133.722 103.688 144.555 101.806C155.388 99.9239 166.617 100.89 176.821 104.582C187.026 108.274 195.748 114.526 201.884 122.547C208.021 130.569 211.296 140 211.296 149.647C211.279 162.58 205.39 174.978 194.921 184.123C184.451 193.267 170.256 198.411 155.45 198.426ZM124.988 138.561C124.988 137.246 125.435 135.96 126.272 134.866C127.109 133.772 128.298 132.919 129.69 132.416C131.081 131.913 132.612 131.781 134.09 132.037C135.567 132.294 136.924 132.928 137.989 133.858C139.054 134.788 139.779 135.973 140.073 137.264C140.367 138.554 140.216 139.891 139.64 141.107C139.063 142.322 138.087 143.361 136.835 144.092C135.582 144.823 134.11 145.213 132.604 145.213C130.584 145.213 128.647 144.512 127.219 143.265C125.791 142.017 124.988 140.325 124.988 138.561ZM185.911 138.561C185.911 139.877 185.465 141.163 184.628 142.257C183.791 143.351 182.602 144.203 181.21 144.707C179.819 145.21 178.288 145.342 176.81 145.085C175.333 144.828 173.976 144.195 172.911 143.265C171.846 142.334 171.121 141.149 170.827 139.859C170.533 138.569 170.684 137.231 171.26 136.016C171.837 134.8 172.813 133.762 174.065 133.031C175.318 132.3 176.79 131.91 178.296 131.91C180.316 131.91 182.253 132.61 183.681 133.858C185.109 135.105 185.911 136.797 185.911 138.561ZM185.232 165.168C178.702 175.029 167.844 180.688 155.45 180.688C143.056 180.688 132.204 175.034 125.674 165.168C125.306 164.663 125.06 164.099 124.949 163.508C124.838 162.918 124.864 162.315 125.027 161.734C125.19 161.153 125.486 160.607 125.897 160.128C126.307 159.65 126.825 159.249 127.418 158.95C128.01 158.65 128.666 158.459 129.346 158.387C130.026 158.315 130.715 158.363 131.373 158.53C132.03 158.697 132.643 158.978 133.173 159.356C133.703 159.735 134.14 160.203 134.457 160.733C139.197 167.889 146.648 171.819 155.45 171.819C164.252 171.819 171.702 167.884 176.437 160.733C177.11 159.715 178.219 158.971 179.52 158.666C180.821 158.362 182.207 158.521 183.373 159.109C184.539 159.697 185.391 160.666 185.739 161.802C186.088 162.938 185.906 164.149 185.232 165.168Z" fill="black"/>
</svg>
